{
    "patcher": {
        "fileversion": 1,
        "appversion": {
            "major": 9,
            "minor": 1,
            "revision": 2,
            "architecture": "x64",
            "modernui": 1
        },
        "classnamespace": "box",
        "rect": [ 865.0, 188.0, 635.0, 496.0 ],
        "boxes": [
            {
                "box": {
                    "id": "obj-59",
                    "maxclass": "comment",
                    "numinlets": 1,
                    "numoutlets": 0,
                    "patching_rect": [ 41.42857241630554, 492.8571546077728, 30.380950689315796, 20.0 ],
                    "text": "hot"
                }
            },
            {
                "box": {
                    "id": "obj-57",
                    "maxclass": "comment",
                    "numinlets": 1,
                    "numoutlets": 0,
                    "patching_rect": [ 250.00000596046448, 524.2857267856598, 34.285715103149414, 20.0 ],
                    "text": "cold"
                }
            },
            {
                "box": {
                    "id": "obj-55",
                    "maxclass": "number",
                    "numinlets": 1,
                    "numoutlets": 2,
                    "outlettype": [ "", "bang" ],
                    "parameter_enable": 0,
                    "patching_rect": [ 147.14286065101624, 630.0000150203705, 50.0, 22.0 ]
                }
            },
            {
                "box": {
                    "id": "obj-51",
                    "maxclass": "number",
                    "numinlets": 1,
                    "numoutlets": 2,
                    "outlettype": [ "", "bang" ],
                    "parameter_enable": 0,
                    "patching_rect": [ 172.6190459728241, 513.0952332019806, 50.0, 22.0 ]
                }
            },
            {
                "box": {
                    "id": "obj-49",
                    "maxclass": "number",
                    "numinlets": 1,
                    "numoutlets": 2,
                    "outlettype": [ "", "bang" ],
                    "parameter_enable": 0,
                    "patching_rect": [ 73.80952310562134, 488.09523344039917, 50.0, 22.0 ]
                }
            },
            {
                "box": {
                    "id": "obj-47",
                    "maxclass": "newobj",
                    "numinlets": 2,
                    "numoutlets": 1,
                    "outlettype": [ "int" ],
                    "patching_rect": [ 137.14286041259766, 585.7142996788025, 29.5, 22.0 ],
                    "text": "+"
                }
            },
            {
                "box": {
                    "id": "obj-46",
                    "maxclass": "comment",
                    "numinlets": 1,
                    "numoutlets": 0,
                    "patching_rect": [ 479.22077465057373, 463.6363592147827, 150.0, 20.0 ],
                    "text": "<f> 6 decimal places"
                }
            },
            {
                "box": {
                    "format": 6,
                    "id": "obj-44",
                    "maxclass": "flonum",
                    "numinlets": 1,
                    "numoutlets": 2,
                    "outlettype": [ "", "bang" ],
                    "parameter_enable": 0,
                    "patching_rect": [ 402.59739875793457, 453.24674892425537, 50.0, 22.0 ]
                }
            },
            {
                "box": {
                    "id": "obj-42",
                    "maxclass": "comment",
                    "numinlets": 1,
                    "numoutlets": 0,
                    "patching_rect": [ 453.24674892425537, 410.3896064758301, 150.0, 20.0 ],
                    "text": "<i> integers"
                }
            },
            {
                "box": {
                    "id": "obj-40",
                    "maxclass": "number",
                    "numinlets": 1,
                    "numoutlets": 2,
                    "outlettype": [ "", "bang" ],
                    "parameter_enable": 0,
                    "patching_rect": [ 376.6233730316162, 402.59739875793457, 50.0, 22.0 ]
                }
            },
            {
                "box": {
                    "id": "obj-38",
                    "maxclass": "message",
                    "numinlets": 2,
                    "numoutlets": 1,
                    "outlettype": [ "" ],
                    "patching_rect": [ 225.97402381896973, 431.16882705688477, 29.5, 22.0 ],
                    "text": "4"
                }
            },
            {
                "box": {
                    "id": "obj-36",
                    "maxclass": "button",
                    "numinlets": 1,
                    "numoutlets": 1,
                    "outlettype": [ "bang" ],
                    "parameter_enable": 0,
                    "patching_rect": [ 203.89610195159912, 380.51947689056396, 24.0, 24.0 ]
                }
            },
            {
                "box": {
                    "id": "obj-34",
                    "linecount": 2,
                    "maxclass": "comment",
                    "numinlets": 1,
                    "numoutlets": 0,
                    "patching_rect": [ 453.24674892425537, 341.5584383010864, 150.0, 33.0 ],
                    "text": "<b> button : sends a bang message"
                }
            },
            {
                "box": {
                    "id": "obj-32",
                    "maxclass": "button",
                    "numinlets": 1,
                    "numoutlets": 1,
                    "outlettype": [ "bang" ],
                    "parameter_enable": 0,
                    "patching_rect": [ 390.9090871810913, 333.7662305831909, 24.0, 24.0 ]
                }
            },
            {
                "box": {
                    "id": "obj-30",
                    "maxclass": "message",
                    "numinlets": 2,
                    "numoutlets": 1,
                    "outlettype": [ "" ],
                    "patching_rect": [ 393.50648975372314, 272.7272701263428, 55.0, 22.0 ],
                    "text": "1, 2, 3, 4"
                }
            },
            {
                "box": {
                    "id": "obj-28",
                    "maxclass": "message",
                    "numinlets": 2,
                    "numoutlets": 1,
                    "outlettype": [ "" ],
                    "patching_rect": [ 376.6233730316162, 229.87012767791748, 35.0, 22.0 ],
                    "text": "1 2 3"
                }
            },
            {
                "box": {
                    "id": "obj-26",
                    "maxclass": "comment",
                    "numinlets": 1,
                    "numoutlets": 0,
                    "patching_rect": [ 397.4025936126709, 154.54545307159424, 150.0, 20.0 ],
                    "text": "max message"
                }
            },
            {
                "box": {
                    "id": "obj-24",
                    "maxclass": "comment",
                    "numinlets": 1,
                    "numoutlets": 0,
                    "patching_rect": [ 451.94804763793945, 196.1038942337036, 150.0, 20.0 ],
                    "text": "string"
                }
            },
            {
                "box": {
                    "id": "obj-22",
                    "maxclass": "message",
                    "numinlets": 2,
                    "numoutlets": 1,
                    "outlettype": [ "" ],
                    "patching_rect": [ 341.5584383010864, 194.8051929473877, 89.0, 22.0 ],
                    "text": "\"I'm a mesage\""
                }
            },
            {
                "box": {
                    "id": "obj-20",
                    "maxclass": "newobj",
                    "numinlets": 1,
                    "numoutlets": 0,
                    "patching_rect": [ 297.4025945663452, 325.9740228652954, 61.0, 22.0 ],
                    "text": "print sthg:"
                }
            },
            {
                "box": {
                    "id": "obj-19",
                    "maxclass": "message",
                    "numinlets": 2,
                    "numoutlets": 1,
                    "outlettype": [ "" ],
                    "patching_rect": [ 289.6103868484497, 153.24675178527832, 90.0, 22.0 ],
                    "text": "message again"
                }
            },
            {
                "box": {
                    "id": "obj-16",
                    "maxclass": "newobj",
                    "numinlets": 2,
                    "numoutlets": 1,
                    "outlettype": [ "int" ],
                    "patching_rect": [ 238.9610366821289, 110.38960933685303, 29.5, 22.0 ],
                    "text": "+"
                }
            },
            {
                "box": {
                    "id": "obj-15",
                    "maxclass": "comment",
                    "numinlets": 1,
                    "numoutlets": 0,
                    "patching_rect": [ 498.7012939453125, 38.96103858947754, 150.0, 20.0 ],
                    "text": "<c>"
                }
            },
            {
                "box": {
                    "id": "obj-13",
                    "maxclass": "comment",
                    "numinlets": 1,
                    "numoutlets": 0,
                    "patching_rect": [ 312.98701000213623, 28.571428298950195, 150.0, 20.0 ],
                    "text": "I'm a human comment"
                }
            },
            {
                "box": {
                    "id": "obj-11",
                    "maxclass": "comment",
                    "numinlets": 1,
                    "numoutlets": 0,
                    "patching_rect": [ 167.53246593475342, 124.67532348632812, 44.0, 20.0 ],
                    "text": "<n>"
                }
            },
            {
                "box": {
                    "id": "obj-9",
                    "maxclass": "comment",
                    "numinlets": 1,
                    "numoutlets": 0,
                    "patching_rect": [ 120.77921962738037, 22.077921867370605, 38.0, 20.0 ],
                    "text": "<n>"
                }
            },
            {
                "box": {
                    "id": "obj-3",
                    "maxclass": "newobj",
                    "numinlets": 1,
                    "numoutlets": 1,
                    "outlettype": [ "" ],
                    "patching_rect": [ 50.6493501663208, 123.3766222000122, 100.0, 22.0 ]
                }
            },
            {
                "box": {
                    "id": "obj-1",
                    "maxclass": "newobj",
                    "numinlets": 1,
                    "numoutlets": 1,
                    "outlettype": [ "" ],
                    "patching_rect": [ 18.18181800842285, 20.779220581054688, 100.0, 22.0 ]
                }
            }
        ],
        "lines": [
            {
                "patchline": {
                    "destination": [ "obj-3", 0 ],
                    "source": [ "obj-1", 0 ]
                }
            },
            {
                "patchline": {
                    "destination": [ "obj-20", 0 ],
                    "source": [ "obj-19", 0 ]
                }
            },
            {
                "patchline": {
                    "destination": [ "obj-20", 0 ],
                    "source": [ "obj-22", 0 ]
                }
            },
            {
                "patchline": {
                    "destination": [ "obj-20", 0 ],
                    "source": [ "obj-28", 0 ]
                }
            },
            {
                "patchline": {
                    "destination": [ "obj-20", 0 ],
                    "source": [ "obj-30", 0 ]
                }
            },
            {
                "patchline": {
                    "destination": [ "obj-20", 0 ],
                    "source": [ "obj-32", 0 ]
                }
            },
            {
                "patchline": {
                    "destination": [ "obj-38", 0 ],
                    "source": [ "obj-36", 0 ]
                }
            },
            {
                "patchline": {
                    "destination": [ "obj-20", 0 ],
                    "source": [ "obj-38", 0 ]
                }
            },
            {
                "patchline": {
                    "destination": [ "obj-55", 0 ],
                    "source": [ "obj-47", 0 ]
                }
            },
            {
                "patchline": {
                    "destination": [ "obj-47", 0 ],
                    "source": [ "obj-49", 0 ]
                }
            },
            {
                "patchline": {
                    "destination": [ "obj-47", 1 ],
                    "source": [ "obj-51", 0 ]
                }
            }
        ],
        "autosave": 0
    }
}