{
    "patcher": {
        "fileversion": 1,
        "appversion": {
            "major": 9,
            "minor": 1,
            "revision": 2,
            "architecture": "x64",
            "modernui": 1
        },
        "classnamespace": "box",
        "rect": [ 364.0, 233.0, 657.0, 491.0 ],
        "boxes": [
            {
                "box": {
                    "id": "obj-55",
                    "maxclass": "newobj",
                    "numinlets": 1,
                    "numoutlets": 0,
                    "patching_rect": [ 271.73912525177, 485.8695559501648, 32.0, 22.0 ],
                    "text": "print"
                }
            },
            {
                "box": {
                    "id": "obj-54",
                    "maxclass": "message",
                    "numinlets": 2,
                    "numoutlets": 1,
                    "outlettype": [ "" ],
                    "patching_rect": [ 152.1739101409912, 456.52173042297363, 69.0, 22.0 ],
                    "text": "hello world!"
                }
            },
            {
                "box": {
                    "format": 6,
                    "id": "obj-52",
                    "maxclass": "flonum",
                    "numinlets": 1,
                    "numoutlets": 2,
                    "outlettype": [ "", "bang" ],
                    "parameter_enable": 0,
                    "patching_rect": [ 581.5217280387878, 107.60869359970093, 50.0, 22.0 ]
                }
            },
            {
                "box": {
                    "format": 6,
                    "id": "obj-50",
                    "maxclass": "flonum",
                    "numinlets": 1,
                    "numoutlets": 2,
                    "outlettype": [ "", "bang" ],
                    "parameter_enable": 0,
                    "patching_rect": [ 419.5652093887329, 107.60869359970093, 50.0, 22.0 ]
                }
            },
            {
                "box": {
                    "id": "obj-48",
                    "maxclass": "comment",
                    "numinlets": 1,
                    "numoutlets": 0,
                    "patching_rect": [ 471.5652093887329, 79.34782457351685, 150.0, 20.0 ],
                    "text": "sin wave oscilator"
                }
            },
            {
                "box": {
                    "id": "obj-46",
                    "maxclass": "comment",
                    "numinlets": 1,
                    "numoutlets": 0,
                    "patching_rect": [ 542.0, 327.0, 150.0, 20.0 ],
                    "text": "<live.gain>"
                }
            },
            {
                "box": {
                    "id": "obj-44",
                    "maxclass": "comment",
                    "numinlets": 1,
                    "numoutlets": 0,
                    "patching_rect": [ 564.0, 456.0, 150.0, 20.0 ],
                    "text": "<ezdac>"
                }
            },
            {
                "box": {
                    "id": "obj-42",
                    "maxclass": "ezdac~",
                    "numinlets": 2,
                    "numoutlets": 0,
                    "patching_rect": [ 493.5, 437.0, 45.0, 45.0 ]
                }
            },
            {
                "box": {
                    "id": "obj-41",
                    "lastchannelcount": 0,
                    "maxclass": "live.gain~",
                    "numinlets": 2,
                    "numoutlets": 5,
                    "outlettype": [ "signal", "signal", "", "float", "list" ],
                    "parameter_enable": 1,
                    "patching_rect": [ 492.0, 284.782603263855, 48.0, 136.0 ],
                    "saved_attribute_attributes": {
                        "valueof": {
                            "parameter_longname": "live.gain~",
                            "parameter_mmax": 6.0,
                            "parameter_mmin": -70.0,
                            "parameter_modmode": 3,
                            "parameter_shortname": "live.gain~",
                            "parameter_type": 0,
                            "parameter_unitstyle": 4
                        }
                    },
                    "varname": "live.gain~"
                }
            },
            {
                "box": {
                    "id": "obj-40",
                    "maxclass": "newobj",
                    "numinlets": 2,
                    "numoutlets": 1,
                    "outlettype": [ "signal" ],
                    "patching_rect": [ 565.0, 149.0, 70.0, 22.0 ],
                    "text": "cycle~ 600."
                }
            },
            {
                "box": {
                    "id": "obj-39",
                    "maxclass": "newobj",
                    "numinlets": 2,
                    "numoutlets": 1,
                    "outlettype": [ "signal" ],
                    "patching_rect": [ 473.0, 149.0, 70.0, 22.0 ],
                    "text": "cycle~ 220."
                }
            },
            {
                "box": {
                    "id": "obj-38",
                    "maxclass": "newobj",
                    "numinlets": 2,
                    "numoutlets": 1,
                    "outlettype": [ "signal" ],
                    "patching_rect": [ 492.0, 234.0, 29.5, 22.0 ],
                    "text": "+~"
                }
            },
            {
                "box": {
                    "id": "obj-37",
                    "maxclass": "comment",
                    "numinlets": 1,
                    "numoutlets": 0,
                    "patching_rect": [ 389.0, 280.0, 56.0, 20.0 ],
                    "text": "recurse"
                }
            },
            {
                "box": {
                    "id": "obj-35",
                    "maxclass": "comment",
                    "numinlets": 1,
                    "numoutlets": 0,
                    "patching_rect": [ 383.0, 195.0, 44.0, 20.0 ],
                    "text": "iterate"
                }
            },
            {
                "box": {
                    "id": "obj-33",
                    "maxclass": "number",
                    "numinlets": 1,
                    "numoutlets": 2,
                    "outlettype": [ "", "bang" ],
                    "parameter_enable": 0,
                    "patching_rect": [ 342.0, 310.0, 50.0, 22.0 ]
                }
            },
            {
                "box": {
                    "id": "obj-31",
                    "maxclass": "newobj",
                    "numinlets": 2,
                    "numoutlets": 1,
                    "outlettype": [ "int" ],
                    "patching_rect": [ 342.0, 273.0, 29.5, 22.0 ],
                    "text": "+"
                }
            },
            {
                "box": {
                    "id": "obj-30",
                    "maxclass": "number",
                    "numinlets": 1,
                    "numoutlets": 2,
                    "outlettype": [ "", "bang" ],
                    "parameter_enable": 0,
                    "patching_rect": [ 342.0, 234.0, 50.0, 22.0 ]
                }
            },
            {
                "box": {
                    "id": "obj-28",
                    "maxclass": "button",
                    "numinlets": 1,
                    "numoutlets": 1,
                    "outlettype": [ "bang" ],
                    "parameter_enable": 0,
                    "patching_rect": [ 333.0, 193.0, 24.0, 24.0 ]
                }
            },
            {
                "box": {
                    "format": 6,
                    "id": "obj-24",
                    "maxclass": "flonum",
                    "numinlets": 1,
                    "numoutlets": 2,
                    "outlettype": [ "", "bang" ],
                    "parameter_enable": 0,
                    "patching_rect": [ 142.0, 376.0, 26.0, 22.0 ]
                }
            },
            {
                "box": {
                    "id": "obj-25",
                    "maxclass": "comment",
                    "numinlets": 1,
                    "numoutlets": 0,
                    "patching_rect": [ 205.0, 376.0, 26.0, 20.0 ],
                    "text": "C"
                }
            },
            {
                "box": {
                    "id": "obj-23",
                    "linecount": 2,
                    "maxclass": "newobj",
                    "numinlets": 1,
                    "numoutlets": 1,
                    "outlettype": [ "" ],
                    "patching_rect": [ 148.0, 327.0, 121.0, 35.0 ],
                    "text": "expr ((($f1 - 32.) * 5.) / 9.)"
                }
            },
            {
                "box": {
                    "format": 6,
                    "id": "obj-19",
                    "maxclass": "flonum",
                    "numinlets": 1,
                    "numoutlets": 2,
                    "outlettype": [ "", "bang" ],
                    "parameter_enable": 0,
                    "patching_rect": [ 40.75, 374.0, 50.0, 22.0 ]
                }
            },
            {
                "box": {
                    "id": "obj-20",
                    "maxclass": "comment",
                    "numinlets": 1,
                    "numoutlets": 0,
                    "patching_rect": [ 96.0, 376.0, 32.0, 20.0 ],
                    "text": "C"
                }
            },
            {
                "box": {
                    "format": 6,
                    "id": "obj-18",
                    "maxclass": "flonum",
                    "numinlets": 1,
                    "numoutlets": 2,
                    "outlettype": [ "", "bang" ],
                    "parameter_enable": 0,
                    "patching_rect": [ 37.0, 182.0, 50.0, 22.0 ]
                }
            },
            {
                "box": {
                    "id": "obj-16",
                    "maxclass": "newobj",
                    "numinlets": 2,
                    "numoutlets": 1,
                    "outlettype": [ "float" ],
                    "patching_rect": [ 51.0, 335.0, 29.5, 22.0 ],
                    "text": "/ 9."
                }
            },
            {
                "box": {
                    "id": "obj-15",
                    "maxclass": "newobj",
                    "numinlets": 2,
                    "numoutlets": 1,
                    "outlettype": [ "float" ],
                    "patching_rect": [ 50.0, 294.0, 29.5, 22.0 ],
                    "text": "* 5."
                }
            },
            {
                "box": {
                    "id": "obj-11",
                    "maxclass": "newobj",
                    "numinlets": 2,
                    "numoutlets": 1,
                    "outlettype": [ "float" ],
                    "patching_rect": [ 37.0, 238.0, 33.0, 22.0 ],
                    "text": "- 32."
                }
            },
            {
                "box": {
                    "id": "obj-10",
                    "maxclass": "comment",
                    "numinlets": 1,
                    "numoutlets": 0,
                    "patching_rect": [ 100.0, 182.0, 150.0, 20.0 ],
                    "text": "F"
                }
            },
            {
                "box": {
                    "id": "obj-6",
                    "linecount": 2,
                    "maxclass": "comment",
                    "numinlets": 1,
                    "numoutlets": 0,
                    "patching_rect": [ 56.0, 88.0, 150.0, 47.0 ],
                    "text": "equation: *C = ((( F - 32.) * 5.) / 9.)\n"
                }
            },
            {
                "box": {
                    "id": "obj-4",
                    "maxclass": "comment",
                    "numinlets": 1,
                    "numoutlets": 0,
                    "patching_rect": [ 466.0, 38.0, 150.0, 20.0 ],
                    "text": "AUDIO RATE (MSP)"
                }
            },
            {
                "box": {
                    "id": "obj-2",
                    "maxclass": "comment",
                    "numinlets": 1,
                    "numoutlets": 0,
                    "patching_rect": [ 26.0, 31.0, 150.0, 20.0 ],
                    "text": "CONTROL RATE (Max)"
                }
            }
        ],
        "lines": [
            {
                "patchline": {
                    "destination": [ "obj-15", 0 ],
                    "source": [ "obj-11", 0 ]
                }
            },
            {
                "patchline": {
                    "destination": [ "obj-16", 0 ],
                    "source": [ "obj-15", 0 ]
                }
            },
            {
                "patchline": {
                    "destination": [ "obj-19", 0 ],
                    "source": [ "obj-16", 0 ]
                }
            },
            {
                "patchline": {
                    "destination": [ "obj-11", 0 ],
                    "order": 1,
                    "source": [ "obj-18", 0 ]
                }
            },
            {
                "patchline": {
                    "destination": [ "obj-23", 0 ],
                    "order": 0,
                    "source": [ "obj-18", 0 ]
                }
            },
            {
                "patchline": {
                    "destination": [ "obj-24", 0 ],
                    "source": [ "obj-23", 0 ]
                }
            },
            {
                "patchline": {
                    "destination": [ "obj-30", 0 ],
                    "source": [ "obj-28", 0 ]
                }
            },
            {
                "patchline": {
                    "destination": [ "obj-31", 0 ],
                    "source": [ "obj-30", 0 ]
                }
            },
            {
                "patchline": {
                    "destination": [ "obj-33", 0 ],
                    "source": [ "obj-31", 0 ]
                }
            },
            {
                "patchline": {
                    "destination": [ "obj-31", 1 ],
                    "midpoints": [ 351.5, 333.0, 327.0, 333.0, 327.0, 270.0, 362.0, 270.0 ],
                    "source": [ "obj-33", 0 ]
                }
            },
            {
                "patchline": {
                    "destination": [ "obj-41", 1 ],
                    "order": 0,
                    "source": [ "obj-38", 0 ]
                }
            },
            {
                "patchline": {
                    "destination": [ "obj-41", 0 ],
                    "order": 1,
                    "source": [ "obj-38", 0 ]
                }
            },
            {
                "patchline": {
                    "destination": [ "obj-38", 0 ],
                    "source": [ "obj-39", 0 ]
                }
            },
            {
                "patchline": {
                    "destination": [ "obj-38", 1 ],
                    "source": [ "obj-40", 0 ]
                }
            },
            {
                "patchline": {
                    "destination": [ "obj-42", 1 ],
                    "source": [ "obj-41", 1 ]
                }
            },
            {
                "patchline": {
                    "destination": [ "obj-42", 0 ],
                    "source": [ "obj-41", 0 ]
                }
            },
            {
                "patchline": {
                    "destination": [ "obj-39", 0 ],
                    "source": [ "obj-50", 0 ]
                }
            },
            {
                "patchline": {
                    "destination": [ "obj-40", 0 ],
                    "source": [ "obj-52", 0 ]
                }
            },
            {
                "patchline": {
                    "destination": [ "obj-55", 0 ],
                    "source": [ "obj-54", 0 ]
                }
            }
        ],
        "parameters": {
            "obj-41": [ "live.gain~", "live.gain~", 0 ],
            "parameterbanks": {
                "0": {
                    "index": 0,
                    "name": "",
                    "parameters": [ "-", "-", "-", "-", "-", "-", "-", "-" ],
                    "buttons": [ "-", "-", "-", "-", "-", "-", "-", "-" ]
                }
            },
            "inherited_shortname": 1
        },
        "autosave": 0
    }
}