{
    "patcher": {
        "fileversion": 1,
        "appversion": {
            "major": 9,
            "minor": 1,
            "revision": 2,
            "architecture": "x64",
            "modernui": 1
        },
        "classnamespace": "box",
        "rect": [ 117.0, 95.0, 1234.0, 625.0 ],
        "boxes": [
            {
                "box": {
                    "id": "obj-28",
                    "linecount": 2,
                    "maxclass": "comment",
                    "numinlets": 1,
                    "numoutlets": 0,
                    "patching_rect": [ 48.0, 84.0, 150.0, 33.0 ],
                    "text": "edit menu list in inspector to list options"
                }
            },
            {
                "box": {
                    "id": "obj-23",
                    "maxclass": "comment",
                    "numinlets": 1,
                    "numoutlets": 0,
                    "patching_rect": [ 86.0, 125.0, 150.0, 20.0 ],
                    "text": "umenu"
                }
            },
            {
                "box": {
                    "id": "obj-21",
                    "items": [ "none", ",", "adc", ",", "soundfile", ",", "noise", ",", "click", ",", "sine" ],
                    "maxclass": "umenu",
                    "numinlets": 1,
                    "numoutlets": 3,
                    "outlettype": [ "int", "", "" ],
                    "parameter_enable": 0,
                    "patching_rect": [ 86.0, 148.0, 130.0, 22.0 ]
                }
            },
            {
                "box": {
                    "id": "obj-20",
                    "maxclass": "newobj",
                    "numinlets": 1,
                    "numoutlets": 0,
                    "patching_rect": [ 182.0, 462.0, 61.0, 22.0 ],
                    "text": "send~ in1"
                }
            },
            {
                "box": {
                    "id": "obj-19",
                    "maxclass": "newobj",
                    "numinlets": 6,
                    "numoutlets": 1,
                    "outlettype": [ "signal" ],
                    "patching_rect": [ 165.0, 221.0, 836.0, 22.0 ],
                    "text": "selector~ 5"
                }
            },
            {
                "box": {
                    "id": "obj-18",
                    "maxclass": "comment",
                    "numinlets": 1,
                    "numoutlets": 0,
                    "patching_rect": [ 591.0, 38.0, 150.0, 20.0 ],
                    "text": "playlist~"
                }
            },
            {
                "box": {
                    "data": {
                        "clips": []
                    },
                    "id": "obj-16",
                    "maxclass": "playlist~",
                    "mode": 0,
                    "numinlets": 1,
                    "numoutlets": 5,
                    "outlettype": [ "signal", "signal", "signal", "", "dictionary" ],
                    "parameter_enable": 0,
                    "patching_rect": [ 428.0, 31.0, 150.0, 92.0 ],
                    "quality": 0,
                    "saved_attribute_attributes": {
                        "candicane2": {
                            "expression": ""
                        },
                        "candicane3": {
                            "expression": ""
                        },
                        "candicane4": {
                            "expression": ""
                        },
                        "candicane5": {
                            "expression": ""
                        },
                        "candicane6": {
                            "expression": ""
                        },
                        "candicane7": {
                            "expression": ""
                        },
                        "candicane8": {
                            "expression": ""
                        }
                    }
                }
            },
            {
                "box": {
                    "id": "obj-15",
                    "maxclass": "newobj",
                    "numinlets": 2,
                    "numoutlets": 1,
                    "outlettype": [ "signal" ],
                    "patching_rect": [ 978.0, 172.0, 40.0, 22.0 ],
                    "text": "*~ 0.2"
                }
            },
            {
                "box": {
                    "id": "obj-14",
                    "maxclass": "newobj",
                    "numinlets": 2,
                    "numoutlets": 1,
                    "outlettype": [ "signal" ],
                    "patching_rect": [ 978.0, 130.0, 66.0, 22.0 ],
                    "text": "cycle~ 200"
                }
            },
            {
                "box": {
                    "id": "obj-13",
                    "maxclass": "comment",
                    "numinlets": 1,
                    "numoutlets": 0,
                    "patching_rect": [ 888.0, 76.0, 150.0, 20.0 ],
                    "text": "t - toggle / switch"
                }
            },
            {
                "box": {
                    "id": "obj-11",
                    "maxclass": "toggle",
                    "numinlets": 1,
                    "numoutlets": 1,
                    "outlettype": [ "int" ],
                    "parameter_enable": 0,
                    "patching_rect": [ 837.0, 71.0, 24.0, 24.0 ]
                }
            },
            {
                "box": {
                    "id": "obj-9",
                    "maxclass": "newobj",
                    "numinlets": 2,
                    "numoutlets": 1,
                    "outlettype": [ "bang" ],
                    "patching_rect": [ 837.0, 122.0, 63.0, 22.0 ],
                    "text": "metro 500"
                }
            },
            {
                "box": {
                    "id": "obj-8",
                    "maxclass": "newobj",
                    "numinlets": 1,
                    "numoutlets": 1,
                    "outlettype": [ "signal" ],
                    "patching_rect": [ 837.0, 161.0, 39.0, 22.0 ],
                    "text": "click~"
                }
            },
            {
                "box": {
                    "id": "obj-7",
                    "maxclass": "newobj",
                    "numinlets": 2,
                    "numoutlets": 1,
                    "outlettype": [ "signal" ],
                    "patching_rect": [ 613.0, 161.0, 40.0, 22.0 ],
                    "text": "*~ 0.2"
                }
            },
            {
                "box": {
                    "id": "obj-6",
                    "linecount": 2,
                    "maxclass": "comment",
                    "numinlets": 1,
                    "numoutlets": 0,
                    "patching_rect": [ 675.0, 124.0, 150.0, 33.0 ],
                    "text": "white noise generator = each frequency is equal"
                }
            },
            {
                "box": {
                    "id": "obj-4",
                    "maxclass": "newobj",
                    "numinlets": 1,
                    "numoutlets": 1,
                    "outlettype": [ "signal" ],
                    "patching_rect": [ 613.0, 120.0, 44.0, 22.0 ],
                    "text": "noise~"
                }
            },
            {
                "box": {
                    "id": "obj-3",
                    "linecount": 3,
                    "maxclass": "comment",
                    "numinlets": 1,
                    "numoutlets": 0,
                    "patching_rect": [ 236.0, 76.0, 150.0, 47.0 ],
                    "text": "built in microphone, or physical inputs on an interface"
                }
            },
            {
                "box": {
                    "id": "obj-1",
                    "maxclass": "newobj",
                    "numinlets": 1,
                    "numoutlets": 1,
                    "outlettype": [ "signal" ],
                    "patching_rect": [ 321.0, 135.0, 45.0, 22.0 ],
                    "text": "adc~ 1"
                }
            },
            {
                "box": {
                    "id": "obj-24",
                    "maxclass": "live.meter~",
                    "numinlets": 1,
                    "numoutlets": 2,
                    "outlettype": [ "float", "int" ],
                    "patching_rect": [ 225.0, 283.0, 14.0, 133.0 ],
                    "slidercolor": [ 0.079348079365577, 0.07934804057877, 0.079348050547289, 1.0 ]
                }
            },
            {
                "box": {
                    "id": "obj-25",
                    "maxclass": "live.meter~",
                    "numinlets": 1,
                    "numoutlets": 2,
                    "outlettype": [ "float", "int" ],
                    "patching_rect": [ 159.0, 281.0, 12.0, 139.0 ],
                    "slidercolor": [ 0.079348079365577, 0.07934804057877, 0.079348050547289, 1.0 ]
                }
            },
            {
                "box": {
                    "id": "obj-26",
                    "maxclass": "gain~",
                    "multichannelvariant": 0,
                    "numinlets": 1,
                    "numoutlets": 2,
                    "outlettype": [ "signal", "" ],
                    "parameter_enable": 0,
                    "patching_rect": [ 190.0, 280.0, 22.0, 140.0 ]
                }
            }
        ],
        "lines": [
            {
                "patchline": {
                    "destination": [ "obj-19", 1 ],
                    "source": [ "obj-1", 0 ]
                }
            },
            {
                "patchline": {
                    "destination": [ "obj-9", 0 ],
                    "source": [ "obj-11", 0 ]
                }
            },
            {
                "patchline": {
                    "destination": [ "obj-15", 0 ],
                    "source": [ "obj-14", 0 ]
                }
            },
            {
                "patchline": {
                    "destination": [ "obj-19", 5 ],
                    "source": [ "obj-15", 0 ]
                }
            },
            {
                "patchline": {
                    "destination": [ "obj-19", 2 ],
                    "source": [ "obj-16", 0 ]
                }
            },
            {
                "patchline": {
                    "destination": [ "obj-25", 0 ],
                    "order": 1,
                    "source": [ "obj-19", 0 ]
                }
            },
            {
                "patchline": {
                    "destination": [ "obj-26", 0 ],
                    "order": 0,
                    "source": [ "obj-19", 0 ]
                }
            },
            {
                "patchline": {
                    "destination": [ "obj-19", 0 ],
                    "source": [ "obj-21", 0 ]
                }
            },
            {
                "patchline": {
                    "destination": [ "obj-20", 0 ],
                    "order": 1,
                    "source": [ "obj-26", 0 ]
                }
            },
            {
                "patchline": {
                    "destination": [ "obj-24", 0 ],
                    "order": 0,
                    "source": [ "obj-26", 0 ]
                }
            },
            {
                "patchline": {
                    "destination": [ "obj-7", 0 ],
                    "source": [ "obj-4", 0 ]
                }
            },
            {
                "patchline": {
                    "destination": [ "obj-19", 3 ],
                    "source": [ "obj-7", 0 ]
                }
            },
            {
                "patchline": {
                    "destination": [ "obj-19", 4 ],
                    "source": [ "obj-8", 0 ]
                }
            },
            {
                "patchline": {
                    "destination": [ "obj-8", 0 ],
                    "source": [ "obj-9", 0 ]
                }
            }
        ],
        "autosave": 0
    }
}